# xmcd
#
# Track frame offsets:
#	150
#	16212
#	26210
#	40612
#	51310
#	62632
#	77542
#	91515
#	106600
#	123495
#	139607
#	158400
#	173337
#
# Disc length: 2522 seconds
#
# Revision: 1
# Processed by: cddbd v1.5.1PL2 Copyright (c) Steve Scherf et al.
# Submitted via: EasyCDDAExtractor 5.0.6
#
DISCID=8909d80d
DTITLE=Adelar Bertussi - 50 Anos na Estrada
DYEAR=2002
DGENRE=Regional
TTITLE0=Sanfoneiro Pachola
TTITLE1=Engasga Gato
TTITLE2=Dançando Chote
TTITLE3=Ás de Copas
TTITLE4=Preciso Levar-te Comigo
TTITLE5=Vaneira do Rodeio
TTITLE6=Um Pedaço da Minha Vida
TTITLE7=De Cipó em Cipó
TTITLE8=Loira Casada
TTITLE9=Sob o Céu de Santa Maria
TTITLE10=São Francisco é Terra Boa
TTITLE11=Pajarito Amarillo
TTITLE12=Madrugada na Bailanta
EXTD=
EXTT0=
EXTT1=
EXTT2=
EXTT3=
EXTT4=
EXTT5=
EXTT6=
EXTT7=
EXTT8=
EXTT9=
EXTT10=
EXTT11=
EXTT12=
PLAYORDER=
